<svg width="200" height="200" viewBox="0 0 200 200" xmlns="http://www.w3.org/2000/svg" role="img" aria-label="Ucelot">
  <defs>
    <linearGradient id="ember" x1="100" y1="24" x2="100" y2="175" gradientUnits="userSpaceOnUse">
      <stop offset="0" stop-color="#F7A11F"/>
      <stop offset="0.45" stop-color="#F08114"/>
      <stop offset="1" stop-color="#CF540A"/>
    </linearGradient>
  </defs>
  <rect x="0" y="0" width="200" height="200" fill="#FFFFFF"/>
  <g shape-rendering="crispEdges">
    <rect x="24" y="24" width="18" height="18" fill="url(#ember)"/>
    <rect x="43" y="24" width="18" height="18" fill="url(#ember)"/>
    <rect x="81" y="24" width="18" height="18" fill="url(#ember)"/>
    <rect x="100" y="24" width="18" height="18" fill="url(#ember)"/>
    <rect x="138" y="24" width="18" height="18" fill="url(#ember)"/>
    <rect x="157" y="24" width="18" height="18" fill="url(#ember)"/>
    <rect x="24" y="43" width="18" height="18" fill="url(#ember)"/>
    <rect x="43" y="43" width="18" height="18" fill="url(#ember)"/>
    <rect x="62" y="43" width="18" height="18" fill="url(#ember)"/>
    <rect x="81" y="43" width="18" height="18" fill="url(#ember)"/>
    <rect x="100" y="43" width="18" height="18" fill="url(#ember)"/>
    <rect x="138" y="43" width="18" height="18" fill="url(#ember)"/>
    <rect x="157" y="43" width="18" height="18" fill="url(#ember)"/>
    <rect x="24" y="62" width="18" height="18" fill="url(#ember)"/>
    <rect x="62" y="62" width="18" height="18" fill="url(#ember)"/>
    <rect x="100" y="62" width="18" height="18" fill="url(#ember)"/>
    <rect x="138" y="62" width="18" height="18" fill="url(#ember)"/>
    <rect x="157" y="62" width="18" height="18" fill="url(#ember)"/>
    <rect x="24" y="81" width="18" height="18" fill="url(#ember)"/>
    <rect x="43" y="81" width="18" height="18" fill="url(#ember)"/>
    <rect x="62" y="81" width="18" height="18" fill="url(#ember)"/>
    <rect x="81" y="81" width="18" height="18" fill="url(#ember)"/>
    <rect x="100" y="81" width="18" height="18" fill="url(#ember)"/>
    <rect x="119" y="81" width="18" height="18" fill="url(#ember)"/>
    <rect x="138" y="81" width="18" height="18" fill="url(#ember)"/>
    <rect x="157" y="81" width="18" height="18" fill="url(#ember)"/>
    <rect x="24" y="100" width="18" height="18" fill="url(#ember)"/>
    <rect x="43" y="100" width="18" height="18" fill="url(#ember)"/>
    <rect x="62" y="100" width="18" height="18" fill="url(#ember)"/>
    <rect x="81" y="100" width="18" height="18" fill="url(#ember)"/>
    <rect x="100" y="100" width="18" height="18" fill="url(#ember)"/>
    <rect x="119" y="100" width="18" height="18" fill="url(#ember)"/>
    <rect x="138" y="100" width="18" height="18" fill="url(#ember)"/>
    <rect x="157" y="100" width="18" height="18" fill="url(#ember)"/>
    <rect x="24" y="119" width="18" height="18" fill="url(#ember)"/>
    <rect x="43" y="119" width="18" height="18" fill="url(#ember)"/>
    <rect x="62" y="119" width="18" height="18" fill="url(#ember)"/>
    <rect x="119" y="119" width="18" height="18" fill="url(#ember)"/>
    <rect x="138" y="119" width="18" height="18" fill="url(#ember)"/>
    <rect x="157" y="119" width="18" height="18" fill="url(#ember)"/>
    <rect x="24" y="138" width="18" height="18" fill="url(#ember)"/>
    <rect x="43" y="138" width="18" height="18" fill="url(#ember)"/>
    <rect x="62" y="138" width="18" height="18" fill="url(#ember)"/>
    <rect x="81" y="138" width="18" height="18" fill="url(#ember)"/>
    <rect x="100" y="138" width="18" height="18" fill="url(#ember)"/>
    <rect x="119" y="138" width="18" height="18" fill="url(#ember)"/>
    <rect x="138" y="138" width="18" height="18" fill="url(#ember)"/>
    <rect x="157" y="138" width="18" height="18" fill="url(#ember)"/>
    <rect x="43" y="157" width="18" height="18" fill="url(#ember)"/>
    <rect x="62" y="157" width="18" height="18" fill="url(#ember)"/>
    <rect x="81" y="157" width="18" height="18" fill="url(#ember)"/>
    <rect x="100" y="157" width="18" height="18" fill="url(#ember)"/>
    <rect x="119" y="157" width="18" height="18" fill="url(#ember)"/>
    <rect x="138" y="157" width="18" height="18" fill="url(#ember)"/>
  </g>
</svg>
